HIERARCHY
ROOT Joint1
{
	OFFSET 0.000000 0.000000 0.000000
	CHANNELS 6 Xposition Yposition Zposition Xrotation Yrotation Zrotation
	JOINT Joint2
	{
		OFFSET -0.000000 0.000000 1.456275
		CHANNELS 6 Xposition Yposition Zposition Xrotation Yrotation Zrotation
		JOINT Joint3
		{
			OFFSET -0.000000 0.000002 1.471446
			CHANNELS 6 Xposition Yposition Zposition Xrotation Yrotation Zrotation
			JOINT Joint4
			{
				OFFSET 0.625745 0.000000 0.917755
				CHANNELS 6 Xposition Yposition Zposition Xrotation Yrotation Zrotation
				JOINT Joint5
				{
					OFFSET -0.629534 0.000001 0.940221
					CHANNELS 6 Xposition Yposition Zposition Xrotation Yrotation Zrotation
					JOINT Joint6
					{
						OFFSET -0.000001 0.113772 1.960660
						CHANNELS 6 Xposition Yposition Zposition Xrotation Yrotation Zrotation
						JOINT Joint7
						{
							OFFSET -0.669733 -0.113771 0.388340
							CHANNELS 6 Xposition Yposition Zposition Xrotation Yrotation Zrotation
							End Site
							{
								OFFSET 0.005509 0.005509 0.438980
							}
						}
					}
				}
			}
		}
	}
}
MOTION
Frames: 29
Frame Time: 0.041667
0.000000 0.000000 0.000000 -0.000000 1.019410 -59.817622 -0.000000 -0.000000 1.456275 0.000000 -38.904440 0.000001 -0.000000 0.000002 1.471446 -0.000005 -1.133468 -78.177935 0.625744 0.000001 0.917755 -0.000053 91.656952 0.000099 -0.629534 0.000001 0.940220 -0.000001 1.709736 62.493301 -0.000001 0.113772 1.960660 -88.303868 115.666467 0.000002 -0.669733 -0.113771 0.388340 -0.356103 3.504346 114.902278 
0.000000 0.000000 0.000000 -0.000000 1.019410 -61.902223 -0.000000 -0.000000 1.456275 -0.000000 -38.692608 0.000001 -0.000000 0.000002 1.471446 -0.000008 -1.133466 -80.901767 0.625745 0.000000 0.917755 0.000579 90.145240 -0.000047 -0.629534 0.000001 0.940221 0.000000 1.709736 64.671913 -0.000001 0.113771 1.960660 -88.303882 116.562069 0.000005 -0.669733 -0.113771 0.388339 -0.344457 3.500013 114.202812 
0.000000 0.000000 0.000000 -0.000000 1.019410 -63.986360 -0.000000 -0.000000 1.456275 -0.000000 -38.480825 -0.000000 -0.000000 0.000002 1.471446 -0.000004 -1.133465 -83.624998 0.625745 0.000000 0.917755 -0.000151 88.633862 0.000166 -0.629534 0.000001 0.940221 -0.000001 1.709736 66.850039 -0.000001 0.113772 1.960661 -88.303875 117.457452 0.000004 -0.669733 -0.113771 0.388340 -0.332876 3.495541 113.503517 
0.000000 0.000000 0.000000 -0.000000 1.019410 -65.770487 -0.000000 0.000000 1.456275 0.000001 -38.299528 -0.000002 -0.000000 0.000002 1.471446 -0.000006 -1.133467 -85.956216 0.625745 0.000000 0.917755 -0.000055 87.340040 0.000039 -0.629534 0.000001 0.940221 0.000002 1.709737 68.714620 -0.000001 0.113772 1.960661 -88.303868 118.223963 -0.000003 -0.669733 -0.113771 0.388340 -0.323000 3.491600 112.904898 
0.000000 0.000000 0.000000 -0.000000 1.019410 -67.077983 -0.000000 0.000000 1.456275 0.000000 -38.166660 0.000000 -0.000000 0.000002 1.471446 -0.000005 -1.133465 -87.664638 0.625745 0.000001 0.917755 -0.000020 86.391873 -0.000002 -0.629534 0.000001 0.940221 -0.000001 1.709737 70.081067 -0.000001 0.113772 1.960661 -88.303868 118.785691 0.000002 -0.669733 -0.113771 0.388340 -0.315797 3.488649 112.466195 
0.000000 0.000000 0.000000 -0.000000 1.019410 -68.222142 -0.000000 -0.000000 1.456275 0.000001 -38.050396 -0.000000 -0.000000 0.000002 1.471446 -0.000006 -1.133464 -89.159643 0.625745 0.000000 0.917755 -0.000011 85.562155 -0.000011 -0.629534 0.000001 0.940221 -0.000000 1.709737 71.276828 -0.000001 0.113772 1.960660 -88.303875 119.277246 0.000004 -0.669733 -0.113771 0.388340 -0.309504 3.486016 112.082305 
0.000000 0.000000 0.000000 -0.000000 1.019410 -69.638765 -0.000000 0.000000 1.456275 0.000001 -37.906440 0.000001 -0.000000 0.000002 1.471445 -0.000005 -1.133466 -91.010659 0.625745 0.000000 0.917755 -0.000029 84.534847 -0.000006 -0.629534 0.000001 0.940221 -0.000002 1.709736 72.757333 -0.000001 0.113772 1.960660 -88.303875 119.885857 0.000003 -0.669733 -0.113771 0.388340 -0.301742 3.482704 111.606992 
0.000000 0.000000 0.000000 -0.000000 1.019410 -71.572951 -0.000000 0.000000 1.456275 -0.000000 -37.709894 -0.000000 -0.000000 0.000002 1.471445 -0.000006 -1.133463 -93.537945 0.625745 0.000001 0.917755 -0.000002 83.132213 0.000005 -0.629533 0.000001 0.940221 -0.000002 1.709737 74.778742 -0.000001 0.113772 1.960660 -88.303875 120.716832 0.000004 -0.669733 -0.113771 0.388340 -0.291189 3.478077 110.958035 
0.000000 0.000000 0.000000 -0.000000 1.019410 -73.507035 -0.000000 0.000000 1.456275 -0.000000 -37.513359 -0.000000 -0.000000 0.000002 1.471446 -0.000006 -1.133465 -96.065115 0.625745 0.000000 0.917755 -0.000010 81.729647 0.000013 -0.629534 0.000001 0.940221 -0.000000 1.709736 76.800047 -0.000001 0.113772 1.960661 -88.303875 121.547752 0.000005 -0.669734 -0.113771 0.388341 -0.280688 3.473331 110.309106 
0.000000 0.000000 0.000000 -0.000000 1.019410 -74.923425 -0.000000 -0.000000 1.456275 -0.000001 -37.369433 0.000001 -0.000000 0.000002 1.471446 -0.000006 -1.133465 -97.915830 0.625745 0.000000 0.917755 -0.000012 80.702503 0.000007 -0.629534 0.000001 0.940221 -0.000001 1.709737 78.280313 -0.000001 0.113772 1.960661 -88.303875 122.156267 0.000004 -0.669733 -0.113771 0.388340 -0.273033 3.469778 109.833875 
0.000000 0.000000 0.000000 -0.000000 1.019410 -76.067475 -0.000000 -0.000000 1.456275 -0.000001 -37.253177 -0.000000 -0.000000 0.000002 1.471445 -0.000006 -1.133465 -99.410699 0.625745 0.000000 0.917755 -0.000003 79.872854 0.000007 -0.629534 0.000001 0.940221 -0.000001 1.709736 79.475945 -0.000001 0.113772 1.960661 -88.303875 122.647781 0.000004 -0.669733 -0.113771 0.388340 -0.266871 3.466861 109.450025 
0.000000 0.000000 0.000000 -0.000000 1.019410 -77.375306 -0.000000 0.000000 1.456275 0.000000 -37.120278 0.000001 -0.000000 0.000002 1.471446 -0.000007 -1.133466 -101.119564 0.625745 0.000001 0.917755 -0.000005 78.924448 0.000002 -0.629534 0.000001 0.940221 -0.000001 1.709736 80.842754 -0.000001 0.113772 1.960661 -88.303875 123.209646 0.000003 -0.669733 -0.113771 0.388340 -0.259853 3.463481 109.011233 
0.000000 0.000000 0.000000 -0.000000 1.019410 -79.160123 -0.000000 0.000000 1.456275 -0.000001 -36.938913 0.000001 -0.000000 0.000002 1.471445 -0.000005 -1.133463 -103.451678 0.625745 0.000000 0.917755 0.000000 77.630141 0.000005 -0.629533 0.000001 0.940221 -0.000001 1.709736 82.708052 -0.000001 0.113772 1.960661 -88.303875 123.976444 0.000002 -0.669734 -0.113771 0.388340 -0.250315 3.458779 108.412396 
0.000000 0.000000 0.000000 -0.000000 1.019410 -81.243577 -0.000000 0.000000 1.456275 -0.000001 -36.727194 -0.000001 -0.000000 0.000002 1.471446 -0.000006 -1.133465 -106.174013 0.625745 0.000000 0.917755 -0.000003 76.119255 0.000005 -0.629534 0.000001 0.940221 -0.000001 1.709737 84.885468 -0.000001 0.113772 1.960660 -88.303875 124.871540 0.000003 -0.669733 -0.113771 0.388340 -0.239247 3.453164 107.713374 
0.000000 0.000000 0.000000 -0.000000 1.019410 -83.325747 -0.000000 -0.000000 1.456275 -0.000000 -36.515605 -0.000001 -0.000000 0.000002 1.471446 -0.000007 -1.133463 -108.894662 0.625745 0.000001 0.917754 -0.000008 74.609298 0.000007 -0.629533 0.000001 0.940221 0.000001 1.709736 87.061532 -0.000001 0.113772 1.960660 -88.303875 125.766104 0.000006 -0.669733 -0.113772 0.388340 -0.228253 3.447418 107.014782 
0.000000 0.000000 0.000000 -0.000000 1.019410 -85.111848 -0.000000 0.000000 1.456275 0.000000 -36.334110 -0.000000 -0.000000 0.000002 1.471446 -0.000007 -1.133463 -111.228463 0.625745 0.000000 0.917755 -0.000002 73.314055 0.000006 -0.629534 0.000001 0.940221 0.000001 1.709736 88.928182 -0.000001 0.113772 1.960660 -88.303875 126.533421 0.000001 -0.669733 -0.113771 0.388340 -0.218880 3.442383 106.415543 
0.000000 0.000000 0.000000 -0.000000 1.019410 -86.427684 -0.000000 0.000000 1.456275 -0.000000 -36.200402 0.000000 -0.000000 0.000002 1.471446 -0.000008 -1.133466 -112.947799 0.625745 0.000000 0.917755 -0.000004 72.359830 0.000007 -0.629533 0.000001 0.940221 -0.000004 1.709739 90.303359 -0.000001 0.113772 1.960660 -88.303875 127.098728 0.000004 -0.669733 -0.113771 0.388340 -0.212011 3.438612 105.974073 
0.000000 0.000000 0.000000 -0.000000 1.019410 -87.576324 -0.000000 -0.000000 1.456275 -0.000000 -36.083681 0.000000 -0.000000 0.000002 1.471446 -0.000008 -1.133464 -114.448651 0.625745 0.000000 0.917755 -0.000006 71.526861 0.000003 -0.629534 0.000001 0.940221 -0.000002 1.709738 91.503792 -0.000001 0.113772 1.960660 -88.303882 127.592209 0.000002 -0.669733 -0.113772 0.388339 -0.206035 3.435277 105.588700 
0.000000 0.000000 0.000000 -0.000000 1.019410 -88.980119 -0.000000 -0.000000 1.456275 -0.000000 -35.941036 0.000000 -0.000000 0.000002 1.471445 -0.000008 -1.133461 -116.282919 0.625745 0.000000 0.917755 -0.000009 70.508862 0.000013 -0.629534 0.000001 0.940221 -0.000003 1.709739 92.970889 -0.000001 0.113772 1.960661 -88.303882 128.195315 0.000004 -0.669733 -0.113771 0.388341 -0.198760 3.431145 105.117725 
0.000000 0.000000 0.000000 -0.000000 1.019410 -90.887148 -0.000000 -0.000000 1.456275 -0.000000 -35.747243 -0.000000 -0.000000 0.000002 1.471446 -0.000008 -1.133466 -118.774736 0.625745 0.000000 0.917755 -0.000009 69.125920 0.000000 -0.629534 0.000001 0.940221 -0.000001 1.709735 94.963918 -0.000001 0.113772 1.960661 -88.303882 129.014624 -0.000002 -0.669733 -0.113771 0.388341 -0.188941 3.425439 104.477914 
0.000000 0.000000 0.000000 -0.000000 1.019410 -92.848389 -0.000000 -0.000000 1.456275 -0.000000 -35.547942 -0.000000 -0.000000 0.000002 1.471446 -0.000008 -1.133466 -121.337368 0.625745 0.000000 0.917755 -0.000007 67.703663 0.000005 -0.629534 0.000001 0.940221 -0.000004 1.709738 97.013603 -0.000001 0.113772 1.960660 -88.303875 129.857209 -0.000006 -0.669733 -0.113772 0.388340 -0.178908 3.419456 103.819927 
0.000000 0.000000 0.000000 -0.000000 1.019410 -94.384677 -0.000000 -0.000000 1.456275 -0.000000 -35.391824 -0.000000 -0.000000 0.000002 1.471446 -0.000009 -1.133462 -123.344747 0.625744 0.000001 0.917755 -0.000001 66.589570 -0.000002 -0.629534 0.000001 0.940221 -0.000005 1.709738 98.619168 -0.000001 0.113772 1.960661 -88.303882 130.517238 0.000002 -0.669733 -0.113771 0.388339 -0.171095 3.414691 103.304514 
0.000000 0.000000 0.000000 -0.000000 1.019410 -95.593531 -0.000000 0.000000 1.456275 -0.000000 -35.268997 0.000000 -0.000000 0.000002 1.471446 -0.000008 -1.133467 -124.924297 0.625744 0.000000 0.917755 0.000001 65.712936 -0.000002 -0.629534 0.000001 0.940221 -0.000003 1.709737 99.882549 -0.000001 0.113772 1.960660 -88.303875 131.036592 -0.000004 -0.669734 -0.113771 0.388341 -0.164978 3.410890 102.898951 
0.000000 0.000000 0.000000 -0.000000 1.019410 -96.716660 -0.000000 0.000000 1.456275 0.000001 -35.154868 -0.000000 -0.000000 0.000002 1.471446 -0.000009 -1.133465 -126.391817 0.625745 0.000000 0.917755 -0.000002 64.898470 0.000002 -0.629534 0.000001 0.940221 -0.000005 1.709735 101.056317 -0.000001 0.113772 1.960660 -88.303882 131.519104 -0.000000 -0.669733 -0.113772 0.388340 -0.159319 3.407321 102.522143 
0.000000 0.000000 0.000000 -0.000000 1.019410 -97.943752 -0.000000 -0.000000 1.456275 0.000001 -35.030169 0.000000 -0.000000 0.000002 1.471445 -0.000008 -1.133463 -127.995204 0.625744 0.000000 0.917755 -0.000007 64.008612 0.000000 -0.629533 0.000001 0.940221 -0.000001 1.709736 102.338739 -0.000001 0.113772 1.960661 -88.303882 132.046299 -0.000005 -0.669733 -0.113771 0.388339 -0.153166 3.403379 102.110474 
0.000000 0.000000 0.000000 -0.000000 1.019410 -99.256589 -0.000000 -0.000000 1.456275 0.000000 -34.896762 0.000000 -0.000000 0.000002 1.471446 -0.000008 -1.133463 -129.710593 0.625745 0.000001 0.917755 -0.000008 63.056559 -0.000002 -0.629534 0.000001 0.940220 -0.000003 1.709738 103.710781 -0.000001 0.113772 1.960660 -88.303882 132.610322 -0.000003 -0.669732 -0.113771 0.388339 -0.146614 3.399112 101.670036 
0.000000 0.000000 0.000000 -0.000000 1.019410 -100.584931 -0.000000 0.000000 1.456275 0.000000 -34.761780 0.000001 -0.000000 0.000002 1.471445 -0.000009 -1.133465 -131.446267 0.625744 0.000001 0.917755 -0.000005 62.093270 0.000004 -0.629533 0.000001 0.940221 -0.000001 1.709738 105.099017 -0.000001 0.113772 1.960660 -88.303882 133.180998 0.000002 -0.669733 -0.113771 0.388340 -0.140014 3.394745 101.224394 
0.000000 0.000000 0.000000 -0.000000 1.019410 -101.876807 -0.000000 0.000000 1.456275 0.000000 -34.630504 -0.000001 -0.000000 0.000002 1.471446 -0.000009 -1.133462 -133.134293 0.625745 0.000001 0.917755 -0.000010 61.156428 0.000004 -0.629533 0.000001 0.940221 -0.000003 1.709736 106.449154 -0.000001 0.113772 1.960661 -88.303875 133.736006 0.000001 -0.669733 -0.113771 0.388340 -0.133633 3.390447 100.790984 
0.000000 0.000000 0.000000 -0.000000 1.019410 -103.153171 -0.000000 0.000000 1.456275 -0.000000 -34.500802 -0.000000 -0.000001 0.000002 1.471446 -0.000009 -1.133463 -134.802034 0.625744 0.000000 0.917755 -0.000006 60.230828 0.000002 -0.629534 0.000001 0.940221 -0.000000 1.709735 107.783076 -0.000001 0.113772 1.960660 -88.303875 134.284360 0.000001 -0.669734 -0.113771 0.388340 -0.127361 3.386156 100.362793 
